<svg xmlns="http://www.w3.org/2000/svg" viewBox="0 0 512 512" width="512" height="512" role="img" aria-label="DNA Analytics"><title>DNA Analytics</title><defs><filter id="glow" x="-30%" y="-30%" width="160%" height="160%"><feDropShadow dx="0" dy="0" stdDeviation="5.6" flood-color="#22E5FF" flood-opacity="0.9"/></filter></defs><g transform="translate(16.00 16.00) scale(4.0000)" fill="none" stroke-linecap="round" stroke-linejoin="round" filter="url(#glow)"><polygon points="60,6 106.8,33 106.8,87 60,114 13.2,87 13.2,33" stroke="#22E5FF" stroke-width="2.5"/><path d="M60 6V14M106.8 33L99.9 37M106.8 87L99.9 83M60 114V106M13.2 87L20.1 83M13.2 33L20.1 37" stroke="#22E5FF" stroke-width="2.5"/><path d="M46.5 33H73.5M42 42H78M46.5 51H73.5M46.5 69H73.5M42 78H78M46.5 87H73.5" stroke="#EAF6FF" stroke-width="3.0" opacity="0.85"/><path d="M60 24C84 36 84 48 60 60C36 72 36 84 60 96" stroke="#22E5FF" stroke-width="5"/><path d="M60 24C36 36 36 48 60 60C84 72 84 84 60 96" stroke="#FF2BD6" stroke-width="5"/><circle cx="78" cy="42" r="3.5" fill="#05070D" stroke="#22E5FF" stroke-width="2"/><circle cx="42" cy="42" r="3.5" fill="#05070D" stroke="#FF2BD6" stroke-width="2"/><circle cx="78" cy="78" r="3.5" fill="#05070D" stroke="#FF2BD6" stroke-width="2"/><circle cx="42" cy="78" r="3.5" fill="#05070D" stroke="#22E5FF" stroke-width="2"/></g></svg>